<?xml version="1.0" encoding="UTF-8"?>
<svg version="1.1" xmlns="http://www.w3.org/2000/svg" width="369" height="375">
<path d="M0 0 C121.77 0 243.54 0 369 0 C369 123.75 369 247.5 369 375 C247.23 375 125.46 375 0 375 C0 251.25 0 127.5 0 0 Z " fill="#474279" transform="translate(0,0)"/>
<path d="M0 0 C121.77 0 243.54 0 369 0 C369 123.75 369 247.5 369 375 C247.23 375 125.46 375 0 375 C0 251.25 0 127.5 0 0 Z M154.23046875 30.1328125 C146.08950042 39.79906383 137.766047 44.61226158 125.05859375 46.41796875 C118.10033038 46.76824867 112.4178417 45.00431298 105.93579102 42.79711914 C96.44951149 39.66761315 87.20552139 39.97258439 78 44 C68.28497123 49.27295969 59.96895283 56.98517958 56.43603516 67.71240234 C55.85499021 70.76077365 55.98193911 73.61326702 56.078125 76.71484375 C56.10543142 78.05531337 56.13142837 79.39581019 56.15625 80.73632812 C56.19903091 82.82311279 56.24897886 84.90843545 56.32226562 86.99438477 C56.76501882 100.1994989 54.26144063 112.02061823 45 122 C39.14724493 127.71340376 31.74670763 131.57093366 24.50390625 135.27734375 C14.32884795 140.51476544 7.00187741 148.81759733 3.1875 159.625 C0.00275291 171.6828575 1.96330509 182.87093927 7 194 C10.87911371 200.50598926 16.24027516 205.19209409 22 210 C28.92696507 216.26725411 34.35353963 223.73843308 35.20239258 233.2734375 C35.30415275 235.79042358 35.32791303 238.29353653 35.3125 240.8125 C35.31048584 241.70251709 35.30847168 242.59253418 35.30639648 243.50952148 C35.22269326 248.97529213 34.64802408 253.63875354 32.734375 258.79296875 C31.3081656 263.07918316 31.21610637 267.51733642 31 272 C30.92394531 272.93585938 30.84789063 273.87171875 30.76953125 274.8359375 C30.10386926 288.25712245 35.19461026 300.0238562 44 310 C50.49137789 317.14051568 58.93438426 320.97812809 68 324 C70.68791558 324.04951472 73.34906697 324.0435241 76.03515625 323.9921875 C77.66600919 323.97465156 79.296869 323.9577452 80.92773438 323.94140625 C83.48611727 323.91063238 86.04415095 323.87533513 88.60229492 323.82861328 C110.78281091 323.44503883 110.78281091 323.44503883 119.75 329.875 C120.42546875 330.34679687 121.1009375 330.81859375 121.796875 331.3046875 C122.52390625 331.86414063 123.2509375 332.42359375 124 333 C124.99644531 333.74894531 125.99289063 334.49789063 127.01953125 335.26953125 C130.2485603 337.98635544 131.98386035 341.06630304 133.9375 344.8125 C139.82262425 355.58926543 146.26334653 362.3916509 157.76171875 367.140625 C167.85363262 369.81881686 179.91695109 369.25601383 189 364 C189.76441406 363.5875 190.52882812 363.175 191.31640625 362.75 C198.65552758 358.37881437 203.19409918 352.04686675 207.99609375 345.12109375 C213.66870823 336.99366365 220.21717257 329.90848464 230.24609375 327.44921875 C239.15040349 325.99674269 246.94812107 326.31291117 255.375 329.5 C265.12437388 333.09079773 275.77513263 333.98574206 285.6875 330.25 C287.14501411 329.53967693 288.58631907 328.79398518 290 328 C291.546875 327.1646875 291.546875 327.1646875 293.125 326.3125 C300.98218848 319.99258752 307.51250954 312.19993458 309 302 C309.13667399 299.0818842 309.13977654 296.1708288 309.125 293.25 C309.12886719 292.47011719 309.13273437 291.69023437 309.13671875 290.88671875 C309.49060684 287.13942961 309.49060684 287.13942961 308 284 C306.56794142 271.0626526 309.1280506 262.6195193 316.4609375 251.85546875 C322.5823761 244.68140182 333.08516763 241.26326367 341.4609375 237.40625 C353.40277484 231.75117338 359.39724225 224.23867322 364.31445312 212.07666016 C367.37676033 202.80031218 365.17910707 192.39314938 360.93359375 183.85546875 C357.1594777 177.34107041 352.08707478 172.39684202 345.9375 168.125 C338.21094765 162.509773 333.59546958 153.28398244 332 144 C330.96067802 135.38283674 332.564693 128.3332236 335 120.125 C339.35612902 105.21959991 339.71637217 92.26984255 332.4921875 78.02734375 C325.09801704 65.52603695 314.29489197 58.42261903 300.5625 54.125 C292.05936531 52.03305659 283.57325793 52.70592333 275 54 C262.96627644 54.69731842 251.85702884 51.77434008 242.4765625 43.875 C237.09790804 38.29441654 233.83576082 32.28993072 230.703125 25.296875 C226.167431 16.5167701 218.40392311 10.24896695 209.0625 7.125 C207.71180379 6.73768602 206.35796256 6.36101254 205 6 C204.01 5.67 203.02 5.34 202 5 C179.74392977 3.19475676 167.96175152 13.58252466 154.23046875 30.1328125 Z " fill="#f5f6fe" transform="translate(0,0)"/>
</svg>
